<?xml version="1.0" encoding="UTF-8" standalone="no"?>
<!-- Generator: Adobe Illustrator 25.4.1, SVG Export Plug-In . SVG Version: 6.00 Build 0)  -->

<svg
   version="1.1"
   id="Layer_1"
   x="0px"
   y="0px"
   viewBox="0 0 841.89 595.28"
   style="enable-background:new 0 0 841.89 595.28;"
   xml:space="preserve"
   sodipodi:docname="Cypress Logo Final.svg"
   inkscape:version="1.2.2 (732a01da63, 2022-12-09)"
   xmlns:inkscape="http://www.inkscape.org/namespaces/inkscape"
   xmlns:sodipodi="http://sodipodi.sourceforge.net/DTD/sodipodi-0.dtd"
   xmlns="http://www.w3.org/2000/svg"
   xmlns:svg="http://www.w3.org/2000/svg"><defs
   id="defs65" /><sodipodi:namedview
   id="namedview63"
   pagecolor="#ffffff"
   bordercolor="#000000"
   borderopacity="0.25"
   inkscape:showpageshadow="2"
   inkscape:pageopacity="0.0"
   inkscape:pagecheckerboard="0"
   inkscape:deskcolor="#d1d1d1"
   showgrid="false"
   inkscape:zoom="1.1213358"
   inkscape:cx="374.55328"
   inkscape:cy="288.04931"
   inkscape:window-width="1920"
   inkscape:window-height="1147"
   inkscape:window-x="1912"
   inkscape:window-y="-8"
   inkscape:window-maximized="1"
   inkscape:current-layer="Layer_1" />
<style
   type="text/css"
   id="style2">
	.st0{fill:#F05F40;}
	.st1{fill:#222222;}
</style>
<g
   id="g60">
	<g
   id="g18">
		<path
   class="st0"
   d="M357.92,251.88h6.29v12.58h-6.29c-8.68,0-16.1,3.07-22.24,9.22c-6.14,6.14-9.22,13.56-9.22,22.24    c0,8.68,3.07,16.1,9.22,22.24c6.14,6.14,13.56,9.22,22.24,9.22h6.29v12.58h-6.29c-12.16,0-22.54-4.3-31.14-12.9    c-8.6-8.6-12.9-18.98-12.9-31.14c0-12.16,4.3-22.54,12.9-31.14C335.38,256.18,345.76,251.88,357.92,251.88z"
   id="path4" />
		<path
   class="st0"
   d="M404.78,297.37l-22.33-45.48h14.03l14.6,29.76l14.6-29.76h14.03l-22.33,45.48v42.59h-12.58V297.37z"
   id="path6" />
		<path
   class="st0"
   d="M471.14,321.08v18.87h-12.58v-88.08h15.73c9.56,0,17.72,3.38,24.47,10.13c6.75,6.75,10.13,14.91,10.13,24.47    c0,9.56-3.38,17.72-10.13,24.47c-6.75,6.75-14.91,10.13-24.47,10.13H471.14z M471.14,308.5h3.15c6.08,0,11.27-2.15,15.57-6.45    c4.3-4.3,6.45-9.49,6.45-15.57c0-6.08-2.15-11.27-6.45-15.57c-4.3-4.3-9.49-6.45-15.57-6.45h-3.15V308.5z"
   id="path8" />
		<path
   class="st0"
   d="M568.57,314.73l10.07,25.23h-14.47l-7.86-19.69c-2.52,0.54-5.14,0.82-7.86,0.82h-3.15v18.87h-12.58v-88.08    h15.73c9.56,0,17.72,3.38,24.47,10.13c6.75,6.75,10.13,14.91,10.13,24.47c0,9.56-3.38,17.72-10.13,24.47    C571.53,312.34,570.08,313.6,568.57,314.73z M545.3,308.5h3.15c6.08,0,11.27-2.15,15.57-6.45c4.3-4.3,6.45-9.49,6.45-15.57    c0-6.08-2.15-11.27-6.45-15.57c-4.3-4.3-9.49-6.45-15.57-6.45h-3.15V308.5z"
   id="path10" />
		<path
   class="st0"
   d="M652.55,251.88v12.58h-31.46v25.16h25.16v12.58h-25.16v25.16h31.46v12.58h-44.04v-88.08H652.55z"
   id="path12" />
		<path
   class="st0"
   d="M699.09,251.88h18.87v12.58h-18.87c-3.48,0-6.45,1.23-8.9,3.68c-2.45,2.45-3.68,5.42-3.68,8.9    c0,4.19,5.24,9.44,15.73,15.73c10.48,6.29,15.73,13.63,15.73,22.02c0,6.96-2.45,12.9-7.36,17.8c-4.91,4.91-10.84,7.36-17.8,7.36    h-18.87v-12.58h18.87c3.48,0,6.45-1.23,8.9-3.68c2.45-2.45,3.68-5.42,3.68-8.9c0-4.19-5.24-9.44-15.73-15.73    c-10.48-6.29-15.73-13.63-15.73-22.02c0-6.96,2.45-12.9,7.36-17.8C686.19,254.34,692.13,251.88,699.09,251.88z"
   id="path14" />
		<path
   class="st0"
   d="M762.62,251.88h18.87v12.58h-18.87c-3.48,0-6.45,1.23-8.9,3.68c-2.45,2.45-3.68,5.42-3.68,8.9    c0,4.19,5.24,9.44,15.73,15.73c10.48,6.29,15.73,13.63,15.73,22.02c0,6.96-2.45,12.9-7.36,17.8c-4.91,4.91-10.84,7.36-17.8,7.36    h-18.87v-12.58h18.87c3.48,0,6.45-1.23,8.9-3.68c2.45-2.45,3.68-5.42,3.68-8.9c0-4.19-5.24-9.44-15.73-15.73    c-10.48-6.29-15.73-13.63-15.73-22.02c0-6.96,2.45-12.9,7.36-17.8C749.72,254.34,755.65,251.88,762.62,251.88z"
   id="path16" />
	</g>
	<g
   id="g48">
		<path
   class="st1"
   d="M347.07,388.23v-3.31h3.17v-12.67h-3.17v-3.31h10.11v3.31h-3.17v12.67h3.17v3.31H347.07z"
   id="path20" />
		<path
   class="st1"
   d="M371.39,388.23v-19.28h3.39l11.02,14.85l-0.66,0.08c-0.09-0.53-0.17-1.07-0.22-1.61    c-0.05-0.54-0.11-1.1-0.15-1.68c-0.05-0.58-0.08-1.18-0.11-1.81c-0.03-0.62-0.05-1.28-0.05-1.98c-0.01-0.7-0.01-1.44-0.01-2.23    v-5.62h3.69v19.28h-3.42l-11.13-14.76l0.83-0.11c0.09,1.01,0.17,1.87,0.23,2.57c0.06,0.71,0.11,1.32,0.15,1.83    c0.04,0.51,0.07,0.95,0.1,1.31c0.03,0.36,0.05,0.69,0.05,0.98c0.01,0.29,0.01,0.59,0.01,0.88v7.3H371.39z"
   id="path22" />
		<path
   class="st1"
   d="M408.61,388.23l-7.71-19.28h4.08l4.19,10.85c0.22,0.57,0.41,1.07,0.58,1.51s0.31,0.85,0.43,1.23    c0.12,0.38,0.23,0.74,0.34,1.09c0.11,0.35,0.22,0.72,0.33,1.1l-0.77,0.03c0.15-0.53,0.29-1.04,0.44-1.51s0.31-0.99,0.5-1.54    c0.18-0.55,0.41-1.19,0.69-1.9l3.97-10.85h4.08l-7.77,19.28H408.61z"
   id="path24" />
		<path
   class="st1"
   d="M432.35,388.23v-19.28h12.75v3.39h-9.06v12.51h9.2v3.39H432.35z M434.09,380.02v-3.31h9.64v3.31H434.09z"
   id="path26" />
		<path
   class="st1"
   d="M465.46,388.51c-1.16,0-2.21-0.14-3.16-0.43c-0.95-0.28-1.79-0.71-2.55-1.28c-0.75-0.57-1.43-1.27-2.04-2.09    l2.42-2.73c0.9,1.25,1.79,2.11,2.66,2.57c0.87,0.47,1.84,0.7,2.91,0.7c0.61,0,1.16-0.09,1.65-0.28c0.5-0.18,0.89-0.44,1.17-0.76    c0.28-0.32,0.43-0.69,0.43-1.12c0-0.31-0.06-0.6-0.19-0.85s-0.31-0.49-0.54-0.7c-0.23-0.21-0.52-0.4-0.87-0.57    s-0.73-0.32-1.16-0.45c-0.42-0.14-0.9-0.25-1.43-0.34c-1.01-0.22-1.9-0.5-2.66-0.84c-0.76-0.34-1.4-0.76-1.9-1.25    c-0.5-0.5-0.88-1.07-1.13-1.71c-0.25-0.64-0.37-1.36-0.37-2.15c0-0.83,0.18-1.58,0.54-2.27c0.36-0.69,0.85-1.29,1.49-1.79    s1.37-0.89,2.22-1.17c0.85-0.28,1.74-0.41,2.67-0.41c1.12,0,2.11,0.13,2.97,0.4c0.86,0.27,1.62,0.65,2.27,1.14    c0.65,0.5,1.19,1.1,1.61,1.82l-2.45,2.4c-0.37-0.53-0.78-0.99-1.24-1.36c-0.46-0.38-0.95-0.66-1.47-0.84    c-0.52-0.18-1.08-0.28-1.67-0.28c-0.64,0-1.2,0.09-1.67,0.26s-0.84,0.43-1.1,0.76c-0.27,0.33-0.4,0.73-0.4,1.18    c0,0.35,0.08,0.66,0.25,0.94c0.17,0.28,0.4,0.52,0.7,0.73c0.3,0.21,0.69,0.4,1.16,0.55c0.47,0.16,1,0.3,1.58,0.43    c1.01,0.2,1.91,0.47,2.71,0.81c0.8,0.34,1.49,0.74,2.07,1.21c0.58,0.47,1.01,1.01,1.31,1.61c0.29,0.61,0.44,1.29,0.44,2.04    c0,1.27-0.3,2.36-0.91,3.28c-0.61,0.92-1.45,1.62-2.53,2.11C468.18,388.26,466.91,388.51,465.46,388.51z"
   id="path28" />
		<path
   class="st1"
   d="M490.14,388.23v-15.84h-5.54v-3.44h15.01v3.44h-5.73v15.84H490.14z"
   id="path30" />
		<path
   class="st1"
   d="M512.73,388.23v-19.28h3.5l7.03,11.43l-2.12-0.03l7.11-11.4h3.33v19.28h-3.69v-7.02    c0-1.65,0.04-3.14,0.12-4.46c0.08-1.32,0.22-2.63,0.43-3.94l0.44,1.19l-5.87,9.09h-1.82l-5.7-9.01l0.41-1.27    c0.2,1.23,0.34,2.49,0.43,3.79c0.08,1.3,0.12,2.83,0.12,4.61v7.02H512.73z"
   id="path32" />
		<path
   class="st1"
   d="M546.34,388.23v-19.28h12.75v3.39h-9.06v12.51h9.2v3.39H546.34z M548.07,380.02v-3.31h9.64v3.31H548.07z"
   id="path34" />
		<path
   class="st1"
   d="M573.28,388.23v-19.28h3.39l11.02,14.85l-0.66,0.08c-0.09-0.53-0.17-1.07-0.22-1.61    c-0.05-0.54-0.1-1.1-0.15-1.68c-0.05-0.58-0.08-1.18-0.11-1.81c-0.03-0.62-0.05-1.28-0.06-1.98c-0.01-0.7-0.01-1.44-0.01-2.23    v-5.62h3.69v19.28h-3.42l-11.13-14.76l0.83-0.11c0.09,1.01,0.17,1.87,0.23,2.57c0.06,0.71,0.11,1.32,0.15,1.83s0.07,0.95,0.1,1.31    c0.03,0.36,0.05,0.69,0.06,0.98c0.01,0.29,0.01,0.59,0.01,0.88v7.3H573.28z"
   id="path36" />
		<path
   class="st1"
   d="M608.84,388.23v-15.84h-5.54v-3.44h15.01v3.44h-5.73v15.84H608.84z"
   id="path38" />
		<path
   class="st1"
   d="M657.54,388.51c-1.4,0-2.68-0.24-3.84-0.73c-1.17-0.49-2.18-1.18-3.03-2.07c-0.85-0.89-1.52-1.94-1.98-3.15    s-0.7-2.54-0.7-3.99c0-1.42,0.25-2.72,0.74-3.91c0.5-1.19,1.19-2.24,2.08-3.14c0.89-0.9,1.93-1.6,3.11-2.09    c1.19-0.5,2.46-0.74,3.84-0.74c0.94,0,1.85,0.13,2.73,0.4c0.88,0.27,1.69,0.64,2.44,1.13c0.74,0.49,1.36,1.05,1.86,1.69l-2.4,2.62    c-0.46-0.46-0.93-0.86-1.42-1.2c-0.49-0.34-1-0.6-1.54-0.77c-0.54-0.17-1.1-0.26-1.67-0.26c-0.83,0-1.6,0.15-2.33,0.47    c-0.72,0.31-1.35,0.74-1.89,1.29c-0.53,0.55-0.95,1.21-1.27,1.98c-0.31,0.77-0.47,1.62-0.47,2.53c0,0.95,0.15,1.82,0.45,2.6    c0.3,0.78,0.73,1.45,1.28,2.01c0.55,0.56,1.21,0.99,1.97,1.28c0.76,0.29,1.61,0.44,2.55,0.44c0.59,0,1.16-0.08,1.74-0.25    c0.57-0.17,1.1-0.4,1.58-0.7c0.49-0.3,0.92-0.66,1.31-1.06l1.85,2.97c-0.44,0.5-1.03,0.95-1.78,1.35    c-0.75,0.41-1.57,0.72-2.48,0.95C659.37,388.39,658.46,388.51,657.54,388.51z"
   id="path40" />
		<path
   class="st1"
   d="M677.81,388.23v-19.28h3.77v15.84h8.81v3.44H677.81z"
   id="path42" />
		<path
   class="st1"
   d="M711.31,388.4c-1.54,0-2.92-0.33-4.12-0.98c-1.2-0.65-2.15-1.55-2.84-2.7c-0.69-1.15-1.03-2.45-1.03-3.9    v-11.9h3.77v11.65c0,0.83,0.19,1.57,0.58,2.23c0.39,0.66,0.89,1.18,1.53,1.57c0.63,0.38,1.34,0.58,2.11,0.58    c0.81,0,1.54-0.19,2.2-0.58c0.66-0.39,1.18-0.91,1.57-1.57c0.38-0.66,0.58-1.4,0.58-2.23v-11.65h3.64v11.9    c0,1.45-0.34,2.75-1.03,3.9c-0.69,1.15-1.64,2.05-2.85,2.7C714.2,388.07,712.84,388.4,711.31,388.4z"
   id="path44" />
		<path
   class="st1"
   d="M733.87,388.23v-19.28h8.26c1.28,0,2.36,0.19,3.24,0.56c0.87,0.38,1.53,0.92,1.98,1.64    c0.45,0.72,0.67,1.58,0.67,2.59c0,1.08-0.28,1.99-0.84,2.73c-0.56,0.73-1.35,1.24-2.38,1.51l-0.03-0.55    c0.86,0.2,1.61,0.53,2.25,0.99c0.63,0.46,1.13,1.03,1.49,1.71c0.36,0.68,0.54,1.46,0.54,2.34c0,0.95-0.15,1.79-0.45,2.51    c-0.3,0.72-0.75,1.31-1.34,1.79c-0.59,0.48-1.29,0.84-2.11,1.09c-0.82,0.25-1.73,0.37-2.74,0.37H733.87z M737.51,376.83h4.24    c0.52,0,0.96-0.1,1.35-0.29c0.38-0.19,0.69-0.46,0.91-0.8s0.33-0.73,0.33-1.17c0-0.73-0.24-1.3-0.73-1.69    c-0.49-0.4-1.19-0.59-2.11-0.59h-3.99V376.83z M737.51,384.9h4.74c0.64,0,1.19-0.1,1.64-0.29c0.45-0.19,0.8-0.48,1.05-0.87    c0.25-0.39,0.37-0.85,0.37-1.4c0-0.5-0.13-0.92-0.4-1.27c-0.27-0.35-0.63-0.62-1.1-0.81c-0.47-0.19-1.03-0.29-1.69-0.29h-4.6    V384.9z"
   id="path46" />
	</g>
	<g
   id="g58">
		<g
   id="g54">
			<path
   class="st1"
   d="M307.63,188.61c0.45,1.99,1.11,3.96,1.31,5.97c1.79,18.17-2.3,34.71-14.23,48.85     c-9.27,10.99-21.11,18.34-34.72,22.58c-6.96,2.17-14.26,3.31-21.45,4.66c-2.14,0.4-3.55,1.04-4.18,3.21     c-0.46,1.56-1.19,3.04-1.8,4.55c4.22-1.24,8.31-2.66,12.51-3.62c3.08-0.7,6.32-1.17,9.46-1.07c7.54,0.23,14.7-1.28,21.81-3.56     c4.91-1.57,9.95-2.74,14.93-4.09c0.06,0.21,0.12,0.41,0.18,0.62c-2.51,1.18-5.1,2.23-7.52,3.57c-4.54,2.51-9.01,5.15-13.45,7.83     c-0.77,0.46-1.45,1.27-1.89,2.07c-2.17,3.89-4.98,7.13-8.84,9.43c-0.79,0.47-1.43,1.27-2,2.03c-3.69,4.87-7.18,6.27-13.04,4.56     c-3.56-1.04-6.96-2.64-10.43-4.02c-0.87-0.35-1.71-0.8-3.03-1.43c5.88,18.82,15.74,34.88,27.33,50.4     c-24.4,24.67-48.79,49.33-73.15,73.95c-7.94-7.88-15.7-15.49-23.36-23.21c-15.77-15.9-31.48-31.86-47.21-47.8     c-3.12-3.16-3.11-3.17-0.48-6.76c10.16-13.87,18.78-28.57,23.99-45.08c0.08-0.25,0.12-0.52,0.28-1.2     c-1.26,0.62-2.22,1.21-3.25,1.58c-3.82,1.38-7.6,2.94-11.52,3.94c-4.53,1.15-8.24-0.52-11.12-4.25c-1.11-1.43-2.71-2.47-3.96-3.8     c-2.26-2.4-4.42-4.9-6.64-7.34c-1-1.1-1.87-2.44-3.1-3.18c-6.55-3.95-13.2-7.75-19.83-11.62c3.75,0.98,7.59,1.97,11.42,2.99     c5.07,1.35,10.07,3.09,15.22,3.99c4.26,0.74,8.78,0.04,13.03,0.81c5.82,1.06,11.5,2.87,17.21,4.49c0.71,0.2,1.31,1.17,1.73,1.91     c1.98,3.56,3.89,7.17,5.83,10.78c-0.17,0.08-0.51,0.24-1.03,0.49c0.29,0.2,0.45,0.36,0.63,0.43c0.83,0.33,1.66,0.81,2.52,0.92     c4.88,0.61,7.83,3.71,10.21,7.64c0.49,0.82,1.08,1.58,1.65,2.39c-3.19,0.81-11.09-6.61-11.62-7.1c-0.61-0.56-1.13-1.21-1.83-1.69     c1.06,4.04,2.83,7.65,5.39,10.86c1.23,1.55,2.85,2.43,4.73,1.93c4.15-1.1,7.07,0.31,9.23,3.84c0.45,0.73,1.13,1.32,1.99,1.79     c-0.27-0.52-0.51-1.05-0.8-1.55c-3.38-5.8-6.75-11.6-10.16-17.39c-0.33-0.57-0.8-1.14-1.34-1.5c-2.25-1.48-4.55-2.89-6.84-4.32     c0.12-0.23,0.25-0.45,0.37-0.68c3.36,1.1,6.71,2.2,10.07,3.3c0.06-0.14,0.12-0.28,0.18-0.42c-3.07-1.44-6.18-2.8-9.19-4.35     c-1.17-0.6-2.27-1.49-3.15-2.48c-3.28-3.66-6.38-7.48-9.71-11.09c-0.68-0.74-2.01-1.12-3.09-1.25     c-24.55-2.91-45.65-12.27-60.5-32.88c-9.2-12.77-12.06-27.32-10.61-42.78c0.48-5.12,1.47-10.19,2.23-15.29     c0.18,0.03,0.37,0.05,0.55,0.08c0,3.63-0.2,7.27,0.03,10.89c1.83,28.3,23.32,51.38,51.44,55.05c5.32,0.69,10.77,0.48,16.17,0.59     c3.8,0.08,7.6,0.02,11.88,0.02c-2.2,3.44-4.11,6.44-6.24,9.76c4.3-4.16,7.98-8.29,12.25-11.7c4.29-3.42,9.17-6.12,13.97-8.86     c-8.4,10.45-16.81,20.91-25.21,31.36c0.18,0.17,0.36,0.34,0.53,0.51c0.6-0.58,1.21-1.14,1.78-1.75     c8.67-9.26,17.35-18.51,25.96-27.83c1.09-1.18,1.93-1.37,3.37-0.72c4.48,2.02,9.05,3.84,13.52,5.86     c1.34,0.61,2.41,0.53,3.71-0.06c5.61-2.55,11.23-5.08,16.92-7.44c1.07-0.44,2.61-0.46,3.69-0.04c8.18,3.2,16.29,6.6,24.46,9.85     c1.25,0.5,2.67,0.73,4.03,0.8c7.34,0.38,14.7,0.8,21.97-0.68c22.57-4.59,37.77-17.84,45.75-39.37     c2.25-6.05,3.23-12.38,3.25-18.59c0.21,0.16,0.57,0.43,0.92,0.7c0,3.32,0,6.63,0,9.95c-0.02,0-0.04,0-0.06,0     C307.63,195.25,307.63,191.93,307.63,188.61z M208.88,327.92c0,7.9,0.02,15.79-0.02,23.69c0,0.84-0.12,1.85-0.58,2.5     c-1.59,2.26-3.33,4.43-5.09,6.56c-0.37,0.45-1.09,0.85-1.65,0.86c-10.94,0.04-21.88,0.03-32.82-0.02c-0.57,0-1.32-0.37-1.67-0.82     c-1.58-2.01-3.11-4.08-4.52-6.21c-0.54-0.82-0.97-1.87-1.03-2.84c-0.23-4.01-0.3-8.03-0.41-12.05     c-0.19-7.08-0.36-14.16-0.54-21.24c0.17,11.76-1.16,23.37-3.19,34.92c-0.14,0.79,0.11,1.85,0.57,2.51     c2.19,3.11,4.47,6.17,6.85,9.14c0.43,0.54,1.51,0.87,2.25,0.8c8.83-0.81,17.65-1.8,26.54-0.9c3.1,0.31,6.21,0.6,9.32,0.74     c0.75,0.03,1.79-0.36,2.26-0.92c2.42-2.85,4.78-5.76,6.97-8.79c0.6-0.84,0.98-2.28,0.72-3.23     C210.6,344.51,209.02,336.32,208.88,327.92z M185.33,359.79c1.94,0.02,4.21-0.18,5.58-2.07c3.09-4.26,7.63-5.99,12.33-7.49     c2.15-0.69,2.72-2.16,1.4-4.02c-0.96-1.35-2.09-2.58-3.06-3.92c-0.77-1.06-1.66-1.46-2.99-1.3c-7.71,0.95-15.5,1.59-23.15,0.23     c-4.6-0.81-7.25,0.69-9.49,4.38c-1.5,2.47-1.29,3.38,1.46,4.28c4.64,1.51,9.09,3.32,11.94,7.68     C180.66,359.55,182.85,359.82,185.33,359.79z M226.67,292.56c-0.08-0.23-0.17-0.47-0.25-0.7c-0.66,0-1.33-0.09-1.97,0.02     c-2.18,0.36-4.33,0.94-6.52,1.12c-1.61,0.14-2.43,0.9-3.15,2.21c-2.16,3.94-4.41,7.82-6.64,11.73c-0.9,1.58-1.82,3.15-2.74,4.73     c0.17,0.28,0.35,0.57,0.52,0.85c2.07-6.13,6.68-5.8,11.43-5.58c1.09,0.05,2.63-1.06,3.28-2.07c2.02-3.14,3.71-6.5,5.52-9.77     c-0.19-0.16-0.38-0.32-0.57-0.48c-1.24,1.51-9.84,9.49-13.25,8.72C215.47,297.67,219.67,293.34,226.67,292.56z M198.94,368.25     c-9.22-1.36-18.38-1.17-27.92-0.45c0.48,0.33,0.66,0.51,0.88,0.6c4.09,1.66,8.18,3.33,12.29,4.94c0.54,0.21,1.29,0.3,1.8,0.1     C190.33,371.75,194.63,369.99,198.94,368.25z M136.06,316.73c-1.15,2.45-1.61,4.27,0.01,6.28c1.28,1.6,2.16,3.53,3.22,5.31     c3.5,5.87,7,11.74,10.5,17.6c0.16-0.08,0.31-0.17,0.47-0.25C145.58,336.14,140.91,326.61,136.06,316.73z"
   id="path50" />
			<path
   class="st1"
   d="M168.63,348.02c2.04-4.23,2.08-4.38,6.37-3.38c6.86,1.6,13.66,1.41,20.51,0.02     c4.35-0.88,4.46-0.73,6.33,3.46c-3.7,1.21-7.53,2.11-11.05,3.69c-3.85,1.73-7.29,2.15-11.02-0.2c-1.59-1-3.59-1.38-5.43-1.96     C172.52,349.07,170.65,348.59,168.63,348.02z"
   id="path52" />
		</g>
		<polygon
   class="st0"
   points="262.32,345.92 190.91,415.09 280.68,367.24   "
   id="polygon56" />
	</g>
</g>
<rect
   style="fill:none"
   id="rect227"
   width="252.37759"
   height="249.70216"
   x="58.858372"
   y="179.2505" /></svg>
